<svg width="107" height="16" viewBox="0 0 107 16" fill="none" xmlns="http://www.w3.org/2000/svg">
<g id="Logotype">
<path d="M0.604004 15.4319H4.21305V9.19488H11.41V6.02388H4.21305V3.35688H11.8744V0.206879H0.604004V15.4319Z" fill="#101828"/>
<path d="M18.0083 6.48588C19.3802 6.48588 20.4777 7.32588 20.4777 9.74088C20.4777 12.1139 19.4224 13.0169 18.0083 13.0169C16.5942 13.0169 15.539 12.1139 15.539 9.74088C15.539 7.32588 16.6365 6.48588 18.0083 6.48588ZM18.0083 3.79788C14.8636 3.79788 11.9932 5.64588 11.9932 9.74088C11.9932 13.8359 14.8636 15.7049 18.0083 15.7049C21.153 15.7049 24.0234 13.8359 24.0234 9.74088C24.0234 5.64588 21.153 3.79788 18.0083 3.79788Z" fill="#101828"/>
<path d="M30.7104 3.79788C27.2702 3.79788 24.9064 6.12888 24.9064 9.71988C24.9064 13.3109 26.9747 15.7049 30.7104 15.7049C32.9898 15.7049 35.7124 14.6339 36.4933 11.2739H33.243C32.9898 12.3449 32.2089 13.0169 30.9214 13.0169C29.6762 13.0169 28.4521 12.1979 28.4521 9.74088C28.4521 7.32588 29.6762 6.48588 30.9214 6.48588C31.9556 6.48588 32.7787 6.94788 33.0953 8.27088H36.3456C35.6702 4.86888 33.0742 3.79788 30.7104 3.79788Z" fill="#101828"/>
<path d="M44.676 8.37588C40.2649 8.71188 37.1202 9.61488 37.1202 12.3869C37.1202 14.4449 38.8931 15.7049 41.0458 15.7049C42.6709 15.7049 44.0217 15.2639 44.8659 14.0669L44.9081 15.4319H48.3272C48.1584 14.7179 48.074 13.3949 48.074 12.1559V10.9799L48.1162 8.52288C48.1795 5.09988 46.3222 3.77688 43.0508 3.77688C39.674 3.77688 37.6478 5.66688 37.479 7.78788H40.7292C40.877 6.69588 41.6368 6.12888 42.7554 6.12888C44.0217 6.12888 44.676 6.59088 44.676 7.93488V8.37588ZM44.7604 10.6859C44.7604 12.7649 43.7051 13.3529 42.3122 13.3529C41.4046 13.3529 40.7081 12.8699 40.7081 12.1349C40.7081 10.9169 42.3333 10.6439 44.7604 10.4129V10.6859Z" fill="#101828"/>
<path d="M53.3858 0.206879H49.9034V15.4319H53.3858V0.206879Z" fill="#101828"/>
<path d="M55.6062 0.206879V15.4319H59.2152V10.1609H61.4946C65.4624 10.1609 68.4383 9.17388 68.4383 5.16288C68.4383 1.17288 65.4624 0.206879 61.4946 0.206879H55.6062ZM61.6001 3.23088C63.2886 3.23088 64.6182 3.56688 64.6182 5.16288C64.6182 6.75888 63.2886 7.13688 61.6001 7.13688H59.2152V3.23088H61.6001Z" fill="#101828"/>
<path d="M74.5563 6.48588C75.9281 6.48588 77.0256 7.32588 77.0256 9.74088C77.0256 12.1139 75.9704 13.0169 74.5563 13.0169C73.1422 13.0169 72.0869 12.1139 72.0869 9.74088C72.0869 7.32588 73.1844 6.48588 74.5563 6.48588ZM74.5563 3.79788C71.4116 3.79788 68.5412 5.64588 68.5412 9.74088C68.5412 13.8359 71.4116 15.7049 74.5563 15.7049C77.701 15.7049 80.5714 13.8359 80.5714 9.74088C80.5714 5.64588 77.701 3.79788 74.5563 3.79788Z" fill="#101828"/>
<path d="M81.9648 4.13388V15.4319H85.4683V4.13388H81.9648ZM81.9648 0.206879V2.97888H85.4472V0.206879H81.9648Z" fill="#101828"/>
<path d="M91.0229 4.13388H87.5405V15.4319H91.0229V9.63588C91.0229 7.53588 91.6349 6.56988 93.1334 6.56988C94.8219 6.56988 94.8852 7.89288 94.8852 9.50988V15.4319H98.3676V8.64888C98.3676 5.58288 97.4601 3.88188 94.5475 3.88188C92.7535 3.88188 91.5294 4.78488 91.0229 5.62488V4.13388Z" fill="#101828"/>
<path d="M100.776 4.13388H98.9816V6.59088H100.776V12.2609C100.776 14.8859 101.725 15.4319 104.532 15.4319H106.748V12.9329H105.757C104.596 12.9329 104.258 12.7229 104.258 11.6519V6.59088H106.748V4.13388H104.258V1.04688H100.776V4.13388Z" fill="#101828"/>
</g>
</svg>
